<svg version="1.1" id="Layer_1" xmlns="http://www.w3.org/2000/svg" xmlns:xlink="http://www.w3.org/1999/xlink" x="0px" y="0px"
	 viewBox="0 0 245.8 52" style="enable-background:new 0 0 245.8 52;" xml:space="preserve">
<style type="text/css">
	.st0{fill:#FF1212;}
	.st1{fill:#FFDD15;}
	.st2{fill:none;}
</style>
<path id="Caminho_3189" class="st0" d="M10,1.5C4.5,1.5,0,6,0,11.5v29.6c0,5.5,4.5,10,10,10s10-4.5,10-10v-2.2l4.3,7.3
	c2.3,5,8.3,7.2,13.3,4.9c5-2.3,7.2-8.3,4.9-13.3c-0.3-0.7-0.7-1.3-1.1-1.9l-4.5-7.7c6.2-5.9,6.4-15.7,0.5-21.9
	c-2.9-3.1-7-4.8-11.3-4.8H10z"/>
<path id="Caminho_3190" class="st0" d="M174,33.4l-7.7-7.3l7.7-7.3c4-3.8,4.1-10.2,0.2-14.2c-3.8-3.9-10-4.1-14-0.3l-5,4.2
	c-1.3-5.4-6.8-8.6-12.1-7.3c-4.4,1.1-7.6,5.1-7.6,9.7v30.2c0,5.5,4.5,10,10,10c4.6,0,8.6-3.1,9.7-7.6l5,4.3c3.7,4.1,10,4.4,14.1,0.7
	c4.1-3.7,4.4-10,0.7-14.1C174.7,34.1,174.4,33.8,174,33.4"/>
<path id="Caminho_3191" class="st0" d="M224.6,38.1l-7.9-26.3c-2.3-8.1-10.8-12.7-18.8-10.4c-5,1.5-8.9,5.4-10.4,10.4L179.6,38
	c-1.8,5.2,1,10.9,6.2,12.7c5.2,1.8,10.9-1,12.7-6.2c0.1-0.2,0.1-0.4,0.2-0.6l0.9-2.9h5l0.9,2.9c1.5,5.3,7,8.5,12.3,7
	c5.3-1.5,8.5-7,7-12.3C224.7,38.4,224.7,38.2,224.6,38.1"/>
<path id="Caminho_3192" class="st1" d="M76.8,0.9c-5.5,0-10,4.5-10,10l0,0v3.9h-1.5v-3.9c0.5-5.5-3.5-10.4-9-10.9s-10.4,3.5-10.9,9
	c-0.1,0.7-0.1,1.3,0,2v19.4c0.1,11.4,9.4,20.7,20.8,20.6s20.7-9.4,20.6-20.8l0,0V11c0.1-5.5-4.4-10-9.9-10.1
	C76.9,0.9,76.8,0.9,76.8,0.9"/>
<path id="Caminho_3193" class="st0" d="M126.5,20.3c0.5-0.5,1-1,1.4-1.6c3.1-4.4,2-10.4-2.4-13.5c-0.2-0.1-0.3-0.2-0.5-0.3
	c-2.5-1.6-5.3-2.7-8.2-3.4c-5.1-1.2-10.4-0.9-15.2,1c-5.5,2.3-9.5,6.6-10.8,11.8c-1.3,5.4,0.2,11.1,4,15.2l0.3,0.4
	c-1.9,0.9-3.5,2.4-4.6,4.2c-2.6,4.7-0.9,10.6,3.7,13.2c0.2,0.1,0.4,0.2,0.6,0.3c2.9,1.5,6,2.5,9.2,3c1.8,0.3,3.7,0.5,5.6,0.5
	c3.8,0,7.5-0.7,11-2.1c6.2-2.6,10.4-7.4,11.5-13.1S131.1,24.7,126.5,20.3"/>
<path id="Caminho_3194" class="st0" d="M223.3,13.5V5.9H221v-4h8.9v4h-2.2v7.6H223.3z M230.3,13.5L232.1,2h4.5l1.4,5.1l1.4-5.1h4.5
	l1.8,11.5h-4.3L241,8.3l-1.6,5.2h-2.8l-1.5-5.1l-0.5,5.1H230.3z"/>
<rect id="Retângulo_2436" y="0.8" class="st2" width="245.8" height="50.3"/>
</svg>
